<svg width="32" height="32" viewBox="0 0 32 32" fill="none" xmlns="http://www.w3.org/2000/svg">
<path d="M26.9064 14.6905V12.7875H7.97478V14.6905H2.00473C2.00473 14.6905 1.8343 17.9776 3.53974 19.5341C5.41116 21.2427 7.97448 21.9558 7.97448 21.9558V23.1668H11.3139C11.5313 23.385 11.695 23.7095 11.695 24.1972C11.695 25.0541 11.1244 25.3791 10.6915 25.5025H7.9745V30H26.9061L26.9063 25.5023H23.7516C23.7516 25.5023 23.325 20.9181 26.9063 18.3237C28.382 17.254 31 16.7665 31 16.7665V14.6907L26.9064 14.6905ZM13.9941 11.6309L18.6176 10.6774L18.4106 7.58305L27.3888 6.16664L26.5998 2.40565L17.8789 4.90058L16.9189 2.11245L12.2957 3.06636L12.7546 7.4324L13.9941 11.6309ZM7.92301 6.63714L11.5809 11.4936H12.7113L10.6163 7.36235L11.5226 7.38872L9.71876 2.72517L6.726 2.85994L8.78786 6.56992L7.92301 6.63714ZM5.66184 5.55823L3.79983 5.62542L10.251 11.2915L5.66184 5.55823ZM6.726 4.52952L5.22969 2H3.38405L5.42895 4.52952H6.726ZM8.32203 11.4936L5.72829 9.89182L5.05468 11.4936H8.32203Z" fill="#EC4899"/>
</svg>
